<?xml version="1.0" standalone="no"?>
<!DOCTYPE svg PUBLIC "-//W3C//DTD SVG 20010904//EN"
 "http://www.w3.org/TR/2001/REC-SVG-20010904/DTD/svg10.dtd">
<svg version="1.0" xmlns="http://www.w3.org/2000/svg"
 width="1200.000000pt" height="1200.000000pt" viewBox="0 0 1200.000000 1200.000000"
 preserveAspectRatio="xMidYMid meet">
<metadata>
Created by potrace 1.11, written by Peter Selinger 2001-2013
</metadata>
<g transform="translate(0.000000,1200.000000) scale(0.100000,-0.100000)"
fill="#000000" stroke="none">
<path d="M1439 9913 c-4 -89 -1 -7834 3 -7839 6 -5 2830 -5 2903 0 22 2 81 6
132 10 51 4 109 9 130 12 21 3 56 7 78 9 22 3 51 7 65 9 14 3 45 8 70 11 25 4
79 13 120 22 41 8 89 17 105 20 91 14 500 129 580 162 11 5 70 28 130 52 61
23 133 52 160 65 28 12 52 21 55 21 9 0 314 160 390 205 95 56 241 149 256
163 6 5 37 28 69 50 71 50 197 148 249 195 242 214 376 356 541 570 175 227
370 568 470 825 156 397 241 772 273 1195 14 189 6 717 -13 805 -3 11 -7 44
-10 74 -18 182 -79 469 -147 686 -32 101 -107 305 -133 360 -153 322 -225 452
-336 609 -57 80 -64 90 -109 150 -135 182 -394 453 -560 586 -24 19 -58 47
-75 61 -43 37 -208 156 -290 210 -307 202 -666 375 -1020 491 -122 39 -391
112 -455 123 -19 3 -51 10 -70 15 -44 11 -198 38 -265 45 -27 3 -61 8 -75 10
-24 4 -89 11 -190 23 -25 2 -717 6 -1537 9 -1430 4 -1493 3 -1494 -14z m2751
-1037 c30 -2 89 -8 130 -11 104 -9 163 -16 240 -30 8 -1 35 -6 60 -10 468 -77
900 -250 1279 -512 46 -32 89 -63 95 -68 6 -6 40 -34 76 -63 334 -274 624
-679 784 -1094 93 -243 143 -441 180 -718 26 -190 27 -518 1 -743 -13 -120
-70 -387 -110 -517 -89 -293 -246 -601 -430 -845 -386 -512 -935 -867 -1600
-1034 -125 -31 -304 -66 -390 -76 -27 -3 -61 -8 -75 -10 -14 -2 -54 -7 -90
-10 -36 -4 -85 -9 -110 -12 -25 -3 -408 -7 -852 -9 -759 -3 -808 -2 -809 14
-3 54 -4 5721 -1 5738 l4 20 781 -2 c430 -1 807 -5 837 -8z"/>
<path d="M9599 9099 c-96 -19 -184 -50 -249 -87 -55 -32 -180 -124 -200 -149
-8 -10 -34 -40 -57 -68 -251 -302 -232 -755 43 -1041 412 -427 1125 -324 1387
201 112 224 112 492 0 710 -169 327 -558 510 -924 434z"/>
<path d="M9634 4554 c-155 -26 -271 -75 -388 -163 -112 -85 -204 -199 -261
-323 -92 -200 -90 -455 4 -652 144 -302 469 -494 812 -479 439 18 792 368 804
798 10 320 -158 590 -460 743 -148 74 -347 104 -511 76z"/>
</g>
</svg>
